<svg xmlns="http://www.w3.org/2000/svg" viewBox="0 0 77 26"><g fill="#fff" fill-rule="nonzero"><path d="M53.723.932c.29-.707 1.158-1.109 1.881-.836.547.21.964.756.964 1.35v3.971h3.955c.338-.016.691.049.948.29.225.177.354.434.45.69 2.026 5 4.051 10.016 6.077 15.015 1.945-4.839 3.89-9.677 5.82-14.516.144-.337.256-.707.546-.964.578-.515 1.575-.483 2.122.08.385.37.53.965.321 1.463-2.234 5.417-4.469 10.819-6.703 16.236-.434 1.045-1.688 1.591-2.765 1.286a2.252 2.252.0 0 1-1.27-.932c-.16-.258-.273-.547-.386-.82-2.09-5.064-4.163-10.128-6.253-15.175h-2.845v11.96c0 .884.385 1.929 1.302 2.218v2.717c-1.093.016-2.267-.241-3.07-1.045-.58-.563-.917-1.35-1.062-2.138-.144-.724-.112-1.463-.112-2.202V8.07h-2.106c-.305.0-.627-.113-.852-.322-.53-.482-.595-1.414-.08-1.929.24-.257.594-.386.932-.37h2.106V1.77c-.016-.29-.032-.58.08-.837zM.113.241h4.935v6.543a9.755 9.755.0 0 1 5.915-1.206c2.428.257 4.71 1.495 6.286 3.344 1.35 1.575 2.186 3.584 2.314 5.658a9.762 9.762.0 0 1-6.622 9.919 9.845 9.845.0 0 1-6.27-.017 9.768 9.768.0 0 1-5.256-4.324 9.681 9.681.0 0 1-1.319-4.806C.113 10.304.113 5.272.113.242zm9.162 10.24a4.808 4.808.0 0 0-3.15 1.752 4.85 4.85.0 0 0-1.093 3.038 4.734 4.734.0 0 0 1.028 3.006 4.832 4.832.0 0 0 2.653 1.72 4.818 4.818.0 0 0 3.247-.337 4.799 4.799.0 0 0 2.379-2.524 4.93 4.93.0 0 0 .032-3.617 4.913 4.913.0 0 0-2.041-2.411 4.907 4.907.0 0 0-3.055-.627zM21.621.241c1.64.0 3.28.0 4.903.016V13.31c0 .949.0 1.913.048 2.862.129 1.752 1.495 3.424 3.28 3.68v4.936c-1.817-.113-3.52-.916-4.936-2.026-1.157-.9-2.105-2.09-2.62-3.488-.578-1.511-.659-3.167-.675-4.774V.24zM31.282 5.37c1.64.0 3.28.0 4.903.015.0 3.2-.016 6.382.016 9.581.032.675-.016 1.382.193 2.042.338 1.093 1.093 2.073 2.138 2.572 1.029.498 2.283.434 3.28-.113a3.861 3.861.0 0 0 1.8-2.042c.354-.852.305-1.784.337-2.668V5.401c1.592.0 3.167.0 4.759-.016v6.35c-.016 1.72.064 3.456-.129 5.16-.096.82-.209 1.64-.498 2.411-.482 1.318-1.383 2.476-2.46 3.376-.916.756-1.945 1.383-3.086 1.736a9.231 9.231.0 0 1-4.083.241c-1.35-.225-2.572-.868-3.665-1.672-1.19-.884-2.187-2.041-2.765-3.424-.692-1.655-.756-3.488-.772-5.272.032-2.974.032-5.948.032-8.922z"/></g></svg>