<svg xmlns="http://www.w3.org/2000/svg" width="20" height="20" fill="none" viewBox="0 0 20 20">
  <path fill="#fff" d="M478.502277 202.919896c-35.97619-52.289989-91.738095-59.434468-111.333333-60.004128-46.833333-4.913312-92.261905 27.937049-116.119048 27.937049-24.333333 0-61.071428-27.462332-100.666666-26.655315-50.9523813.783282-98.619048 30.191951-124.7619051 75.859649-53.952381 93.115583-13.7142857 229.952529 37.9761905 305.218782 25.8571428 36.861714 56.0714286 78.019608 95.6190476 76.571724 38.690476-1.590299 53.142857-24.590299 99.833333-24.590299 46.261905 0 59.833334 24.590299 100.166667 23.664602 41.52381-.664602 67.666667-37.027863 92.619048-74.221878 29.880952-42.249742 41.880952-83.858617 42.357142-85.99484-.97619-.332301-80.642857-30.642931-81.428571-122.334365-.690476-76.500516 62.833333-113.718267 65.738095-115.450981zm-149.4167-105.8641684C349.895101 71.1124871 364.133196 35.8173375 360.180815 0c-30.119048 1.32920537-67.785714 20.7688338-89.476191 46.1424149-19.190476 22.3591331-36.333333 59.0072241-31.904761 93.4716201 33.833333 2.515996 68.571428-17.018576 90.285714-42.5583074z"/>
</svg>
