<svg xmlns="http://www.w3.org/2000/svg" viewBox="0 0 22 22"><path fill="#fff" fill-rule="evenodd" d="M1.986 1.238C.103 3.156.0 5.58.0 5.58c.47 2.351 3.098 6.637 6.295 9.834 3.197 3.198 7.481 5.825 9.834 6.294.0.0 2.425-.1 4.34-1.985v.002l1.13-1.127a.39.39.0 0 0 0-.545l-4.785-4.784a.387.387.0 0 0-.544.0l-1.128 1.127.004.005-1.06 1.315s-2.012-.434-4.835-3.258C6.427 9.635 5.993 7.624 5.993 7.624l1.315-1.062.004.005.037-.04 1.09-1.09a.385.385.0 0 0 0-.542L3.657.111a.386.386.0 0 0-.543.0L1.984 1.238h.002z"/></svg>